<svg width="27" height="39" viewBox="0 0 27 39" fill="none" xmlns="http://www.w3.org/2000/svg">
<path d="M1.76367 2.84473V13.673L16.9781 28.6765V17.8712L1.76367 2.84473Z" fill="#52C7FE"/>
<path d="M16.9785 2.84473V17.8712L24.5518 25.373V2.84473H16.9785Z" fill="#8B78FF"/>
<path d="M16.9785 28.6764L24.5518 36.1782V25.35L16.9785 17.8712V28.6764Z" fill="#6C62FF"/>
<path d="M25.2971 38.9998C25.0485 38.9998 24.7998 38.908 24.5963 38.7015L0.29389 14.6821C0.113035 14.4986 0 14.2233 0 13.971V1.0092C0 0.596255 0.248676 0.229196 0.610387 0.068608C0.994705 -0.0919803 1.42424 -0.000215579 1.71813 0.29802L15.2145 13.6268V2.06449C15.2145 1.5139 15.6666 1.05508 16.2318 1.05508H25.3198C25.8849 1.05508 26.3371 1.5139 26.3371 2.06449V37.9674C26.3371 38.3804 26.0884 38.7474 25.7267 38.908C25.5684 38.9768 25.4102 38.9998 25.2971 38.9998ZM1.01731 0.50449C0.949491 0.50449 0.88167 0.527432 0.836456 0.550373C0.632994 0.642137 0.519959 0.825667 0.519959 1.0092V13.971C0.519959 14.1086 0.565173 14.2463 0.678208 14.3151L24.958 38.3345C25.1163 38.4951 25.3198 38.518 25.5232 38.4263C25.7041 38.3574 25.8397 38.1739 25.8397 37.9674V2.06449C25.8397 1.7892 25.6136 1.55978 25.3424 1.55978H16.2318C15.9605 1.55978 15.7344 1.7892 15.7344 2.06449V14.8427L1.35642 0.665079C1.26599 0.550373 1.15295 0.50449 1.01731 0.50449Z" fill="#365968"/>
<path d="M5.29081 38.7017C8.11667 38.7017 10.4 36.4076 10.4 33.5859C10.4 30.7641 8.11667 28.47 5.29081 28.47C2.46494 28.47 0.181641 30.7641 0.181641 33.5859C0.181641 36.4076 2.48755 38.7017 5.29081 38.7017Z" fill="#8966FF"/>
</svg>
